<svg width="32" height="34" viewBox="0 0 32 34" fill="none" xmlns="http://www.w3.org/2000/svg">
<path d="M12.6675 16.588C12.6675 14.6794 14.1595 13.1319 16.0003 13.1319C17.8412 13.1319 19.3339 14.6794 19.3339 16.588C19.3339 18.4965 17.8412 20.0441 16.0003 20.0441C14.1595 20.0441 12.6675 18.4965 12.6675 16.588ZM10.8655 16.588C10.8655 19.5282 13.1643 21.9116 16.0003 21.9116C18.8363 21.9116 21.1352 19.5282 21.1352 16.588C21.1352 13.6477 18.8363 11.2644 16.0003 11.2644C13.1643 11.2644 10.8655 13.6477 10.8655 16.588ZM20.1385 11.0533C20.1384 11.2994 20.2087 11.5399 20.3405 11.7446C20.4722 11.9492 20.6596 12.1087 20.8788 12.203C21.0981 12.2973 21.3393 12.322 21.5721 12.2741C21.8049 12.2262 22.0188 12.1078 22.1867 11.9339C22.3546 11.7599 22.4689 11.5383 22.5153 11.297C22.5617 11.0557 22.5381 10.8055 22.4473 10.5782C22.3566 10.3508 22.2029 10.1564 22.0056 10.0196C21.8083 9.88285 21.5763 9.80979 21.339 9.80969H21.3385C21.0204 9.80984 20.7153 9.9409 20.4903 10.1741C20.2653 10.4072 20.1388 10.7235 20.1385 11.0533V11.0533ZM11.9603 25.0269C10.9854 24.9808 10.4555 24.8125 10.1033 24.6702C9.63642 24.4818 9.3033 24.2574 8.95306 23.8947C8.60282 23.5321 8.38602 23.1871 8.20506 22.7031C8.06778 22.3381 7.90538 21.7886 7.86106 20.7778C7.81258 19.6849 7.8029 19.3567 7.8029 16.5881C7.8029 13.8194 7.81338 13.4921 7.86106 12.3983C7.90546 11.3875 8.06906 10.8391 8.20506 10.473C8.38682 9.98901 8.6033 9.64364 8.95306 9.28053C9.30282 8.91742 9.63562 8.69265 10.1033 8.50504C10.4553 8.36272 10.9854 8.19435 11.9603 8.1484C13.0144 8.09814 13.3311 8.0881 16.0003 8.0881C18.6696 8.0881 18.9866 8.09897 20.0415 8.1484C21.0165 8.19443 21.5455 8.36405 21.8986 8.50504C22.3655 8.69265 22.6986 8.91792 23.0488 9.28053C23.3991 9.64315 23.6151 9.98901 23.7968 10.473C23.9341 10.838 24.0965 11.3875 24.1408 12.3983C24.1893 13.4921 24.199 13.8194 24.199 16.5881C24.199 19.3567 24.1893 19.684 24.1408 20.7778C24.0964 21.7886 23.9332 22.338 23.7968 22.7031C23.6151 23.1871 23.3986 23.5325 23.0488 23.8947C22.6991 24.257 22.3655 24.4818 21.8986 24.6702C21.5466 24.8126 21.0165 24.9809 20.0415 25.0269C18.9875 25.0771 18.6708 25.0872 16.0003 25.0872C13.3299 25.0872 13.0141 25.0771 11.9603 25.0269V25.0269ZM11.8775 6.28324C10.813 6.33351 10.0855 6.50851 9.45026 6.76479C8.79234 7.02946 8.23538 7.38452 7.67882 7.96062C7.12226 8.53673 6.78066 9.11507 6.52538 9.79717C6.27818 10.4562 6.10938 11.21 6.0609 12.3137C6.01162 13.4191 6.00034 13.7725 6.00034 16.588C6.00034 19.4035 6.01162 19.7569 6.0609 20.8623C6.10938 21.9661 6.27818 22.7197 6.52538 23.3788C6.78066 24.0605 7.12234 24.6395 7.67882 25.2153C8.2353 25.7912 8.79234 26.1457 9.45026 26.4111C10.0867 26.6674 10.813 26.8424 11.8775 26.8927C12.9443 26.943 13.2847 26.9555 16.0003 26.9555C18.716 26.9555 19.0569 26.9438 20.1231 26.8927C21.1878 26.8424 21.9147 26.6674 22.5504 26.4111C23.2079 26.1457 23.7653 25.7914 24.3219 25.2153C24.8784 24.6392 25.2193 24.0605 25.4753 23.3788C25.7225 22.7197 25.8921 21.966 25.9398 20.8623C25.9883 19.756 25.9995 19.4035 25.9995 16.588C25.9995 13.7725 25.9883 13.4191 25.9398 12.3137C25.8913 11.2099 25.7225 10.4558 25.4753 9.79717C25.2193 9.11548 24.8775 8.53764 24.3219 7.96062C23.7662 7.38361 23.2079 7.02946 22.5512 6.76479C21.9147 6.50851 21.1877 6.33268 20.1239 6.28324C19.0577 6.23298 18.7168 6.22046 16.0011 6.22046C13.2855 6.22046 12.9443 6.23215 11.8775 6.28324Z" fill="#121212" fill-opacity="0.6"/>
</svg>
